<svg width="1043.2" height="455.08" version="1.1" viewBox="0 0 1043.2177 455.0786" xml:space="preserve" xmlns="http://www.w3.org/2000/svg" xmlns:cc="http://creativecommons.org/ns#" xmlns:dc="http://purl.org/dc/elements/1.1/" xmlns:rdf="http://www.w3.org/1999/02/22-rdf-syntax-ns#"><metadata><rdf:RDF><cc:Work rdf:about="lineart by orangereebok"><dc:format>image/svg+xml</dc:format><dc:type rdf:resource="http://purl.org/dc/dcmitype/StillImage"/></cc:Work></rdf:RDF></metadata><path d="m320.1 17.709c-8.6224-0.05539-18.92 1.9361-23.419 10.098v399.5c7.2154 10.529 22.063 11.602 33.771 10.088 7.5602-1.2358 17.342-3.6434 20.089-11.484v-397.4c-6.1205-10.57-19.567-11.108-30.441-10.804z" fill="#e51a1a" stroke-width=".95884"/><path d="m285.76 50.375c-3.578-0.11326-7.8408 1.0293-11.072 0.36523-7.7509 0.07714-15.501 0.15528-23.252 0.23242-18.273 0.99537-37.746-2.2344-54.801 6.082-27.131 12.049-47.284 36.867-76.76 44.158-21.417 4.8566-43.71 2.5585-65.631 3.2402-10.67 0.556-21.756-0.82027-32.189 1.4434-6.5572 4.1026-4.2927 13.379-5.1699 19.881-0.36955 27.987-0.10687 55.98-0.1875 83.969 1.4446 3.133 6.2592 2.1418 8.2969 5.3008 3.5057 3.9714 9.5698 7.4432 9.9707 13.123-3.8535 7.0458-10.991 12.035-17.014 16.871-2.092 14.87-0.66299 30.124-1.127 45.133 0.25994 43.815-0.15578 87.741 0.6543 131.48 4.1426 8.6108 12.082 16.697 22.373 15.846 75.962 1.3456 151.95 0.45342 227.92 0.75976 8.8447-0.46171 18.087 0.92746 26.688-0.66797 0.67212-3.9901-3.4948-7.5841-2.6523-12.025-1.3389-66.37-0.43836-132.89-0.72071-199.31v-173.66c-1.2834-1.6348-3.1833-2.1547-5.3301-2.2227zm-110.39 341.8c15.922-0.0543 31.832 0.055 47.689 0.91015 2.6344 0.0927 5.9841 0.8692 5.2285 4.3379 1.0998 4.876-4.9635 7.3381-8.9727 6.168h-136.59c-3.4451-1.9089-4.3187-6.3077-2.3477-9.457 11.533-2.9534 23.737-1.2675 35.568-1.875 3.8897-0.0137 7.7782-8e-3 11.668-0.0156 15.903 0.2029 31.838-0.0141 47.76-0.0684z" fill="#e51a1a" stroke-width=".95884"/><path d="m164.1 17.197c-42.923 0.3478-85.89-0.70636-128.79 0.90828-9.3053 1.1492-16.832 10.199-17.894 19.261-0.83555 20.121-1.2978 40.377-0.08802 60.471 1.3381 4.5215 6.9763 1.0182 10.239 1.8248 28.471-1.4731 57.181 0.06359 85.624-2.5627 23.302-4.3033 41.599-20.733 60.605-33.661 15.324-10.582 33.231-18.57 52.163-17.611 21.309-0.73696 42.858-0.04315 64.02-1.2398 2.8833-5.9623-0.6128-14.646 2.7037-20.945 5.7809-6.8976-3.6527-7.2054-8.5958-6.4652-39.997 0.0064-79.994 0.01281-119.99 0.01922zm-60.643 8.843c8.0043-0.58462 12.669 11.023 5.9928 15.761-5.3186 5.8008-16.025 0.17829-14.611-7.4891 0.34105-4.5229 3.882-8.4992 8.6183-8.2719zm49.509 0.12735c7.9329 0.08893 11.393 10.609 5.5096 15.697-5.2305 5.0273-16.097 1.212-15.098-6.755-0.18942-5.1669 4.4757-9.5252 9.5884-8.9423zm-24.816-0.01311c9.0317-0.29827 12.555 14.609 3.3054 17.225-6.9308 3.4469-14.995-4.2378-12.014-11.294 1.2399-3.5995 4.851-6.2014 8.7082-5.9309zm-69.643 0.33522c17.891-1.5185 33.739 15.906 31.528 33.432 0.28645 13.082-10.417 25.267-22.87 28.312-10.532 1.7-22.459 0.85678-30.217-7.4029-13.037-12.277-12.822-36.216 1.5675-47.182 5.3933-5.0904 12.647-7.8283 19.991-7.1595z" fill="#e51a1a" stroke-width=".95884"/><path d="m18.654 212.94c-3.3371 3.8071-1.1931 10.07-1.957 14.795 0.73383 4.7268-1.3091 10.838 1.839 14.74 4.956-0.24977 7.7032-6.1476 11.499-8.8615 6.8365-3.6213 4.6046-9.1731-0.93698-12.693-3.36-2.4391-5.9682-7.9083-10.444-7.9805z" fill="#e5bd1a" stroke-width=".95884"/><path d="m57.377 38.348c-12.969 0.16398-22.59 16.522-16.031 27.919 4.8425 11.502 21.142 14.997 30.181 6.3355 11.364-9.041 7.5444-29.836-6.7475-33.518-2.4082-0.63711-4.9192-0.83152-7.4029-0.73598z" fill="#28aafd" stroke-width=".95884"/><path d="m58.229 26.498c-13.741 0.03291-26.556 10.359-29.64 23.726-2.1909 8.8796-0.37896 18.7 5.1519 26.036 6.2881 8.6343 17.231 13.905 27.938 12.597 14.011-0.89228 26.225-12.64 28.053-26.49 1.7085-10.653-2.6453-21.927-11.041-28.699-5.6316-4.8485-13.058-7.3337-20.462-7.1689zm1.5195 11.116c10.685-0.030546 20.156 10.207 19.208 20.876 0.18479 8.2863-5.9492 15.861-13.57 18.456-7.5416 2.581-16.566 0.40713-21.703-5.8067-6.1754-6.9322-6.6963-18.297-0.89782-25.615 3.6252-4.9676 9.6057-8.0872 15.785-7.9096 0.3928-0.0074 0.78575-0.0085 1.1786-0.0013z" fill="#196a9e" stroke-width=".339"/><path d="m103.4 26.529c-5.7212 0.01201-9.8926 6.6378-7.558 11.821 1.6952 4.7682 8.0078 7.2257 12.291 4.2726 5.0721-2.8943 5.6506-11.013 0.7707-14.378-1.5717-1.1698-3.5447-1.789-5.5035-1.7149z" fill="#e51a1a" stroke-width=".339"/><path d="m127.82 26.49c-5.9302-0.07532-10.578 6.9187-7.7361 12.287 2.038 4.6353 8.4138 6.6853 12.562 3.5569 3.8931-2.3999 5.3036-7.9992 2.5756-11.788-1.5397-2.5253-4.4347-4.15-7.4011-4.0561z" fill="#e5bd1a" stroke-width=".339"/><path d="m152.05 26.526c-5.2116-0.09994-9.4801 5.2198-8.2433 10.292 0.80972 5.3506 7.3816 8.9554 12.179 6.0855 4.7162-2.0766 6.2969-8.5537 3.3-12.654-1.5895-2.3613-4.3867-3.8133-7.2356-3.7231z" fill="#51ae5f" stroke-width=".339"/><path d="m498.92 16.701c-22.165 0.19762-44.36-0.36876-66.505 0.73692-6.8851 0.37641-12.437 5.7207-16 11.208-4.1643 7.1973-2.5705 15.778-2.9822 23.683 0.0322 15.772-0.16762 31.557 0.20397 47.321 1.6192 3.4127 4.6633-0.19262 7.2381 0.19757 27.156-0.94325 54.434-0.12294 81.622-1.1686 16.962-1.6948 32.572-9.5874 46.276-19.371 15.889-11.082 30.889-24.234 49.714-29.873 7.4037-2.4606 15.159-3.6759 22.885-3.4247 21.481-0.28474 42.964-0.28749 64.446-0.43318 3.4612-1.0358 1.4608-5.5513 1.9932-8.2316 0.16401-5.2512-0.94106-11.224 2.8721-15.527 2.3925-1.43 2.5704-5.6706-0.95509-5.1219-63.603 0.0029-127.21-0.0057-190.81 0.0037zm49.498 9.7092c5.5671-0.57832 10.189 5.0184 8.9788 10.38-0.67301 5.2736-6.4472 8.3717-11.382 6.8992-7.406-2.0127-7.9565-14.175-0.62456-16.766 0.96078-0.37228 2.0026-0.49902 3.0273-0.51313zm-48.453 0.01404c5.2781-0.57215 9.7827 4.3379 9.2354 9.5388-0.31846 5.1307-5.7455 9.1171-10.779 7.8786-6.018-0.95628-9.1423-8.9735-5.2446-13.76 1.5248-2.2356 4.0332-3.7805 6.7887-3.6574zm25.065 0c6.4486-0.30715 10.238 7.6601 7.3055 12.995-2.8423 6.3369-12.811 5.868-15.598-0.25282-2.9818-5.3895 1.1915-13.18 7.6314-12.733l0.32398-0.0094zm-69.588 0.02622c12.701-0.33921 25.055 7.8824 29.374 19.871 4.0439 10.845 2.0304 24.025-6.0002 32.633-6.4134 7.2446-16.289 10.947-25.897 10.044-16.398-0.5379-30.378-16.599-28.772-32.93 0.32371-13.27 10.146-25.618 23.105-28.628 2.675-0.66927 5.4338-0.98982 8.1904-0.9888z" fill="#e51a1a" stroke-width=".47942"/><path d="m633.93 50.453c-12.322-0.03426-24.965 0.14506-36.599 4.7276-24.891 8.7293-42.489 29.888-66.371 40.459-12.821 6.0915-26.966 8.8213-41.055 8.459-23.043 0.3276-46.112-0.0415-69.139 0.64251-3.9261 1.5426-7.571 5.4036-6.9414 9.9234-0.6621 50.767-0.28819 101.54-0.40997 152.31 0.11911 49.339-0.2597 98.684 0.34825 148.02-0.69069 10.437 7.4427 19.96 17.227 22.634 24.321 0.81035 48.675 0.39134 73.009 0.5703 62.229 0.059 124.46 0.0454 186.69 0.0693 3.6524-0.86011 0.96389-4.313-0.56931-5.9366-2.1498-2.8238-2.6786-6.215-2.2998-9.6914l-9e-3 -369.75c-1.0154-3.4591-5.5369-1.5057-8.2116-2.0636-15.222-0.13201-30.443-0.37299-45.666-0.37655zm-80.954 67.566c35.438 0.12521 71.053-0.26332 106.38 0.40239 5.4822-0.1825 9.9366 4.8789 11.264 9.7722v177.47c-1.5881 4.2551-4.5579 8.1482-9.0574 9.7306-10.111 0.52758-20.448 0.0949-30.646 0.25565-51.75-0.047-103.56 0.35962-155.27-0.0542-3.2253 0.0521-6.7454-0.0363-9.2562-2.4742-9.1963-7.5423-17.132-16.426-25.412-24.932-2.5629-3.0122-6.6329-5.8588-5.5929-10.386 0.0434-49.007-0.48615-98.019 0.12765-147.02-0.15063-4.0994 1.8576-7.9046 5.0451-10.398 2.3867-2.4541 6.2531-1.3591 9.3449-1.9458 34.302-0.79523 68.727-0.27186 103.07-0.41949zm-96.965 200.98c9.4958-0.18084 18.153 8.4551 17.387 18.053 0.19102 8.2923-6.5516 16.403-15.035 16.954-5.897 0.82962-12.259-1.0529-15.907-5.9646-6.8027-7.6843-4.8556-21.037 4.0313-26.291 2.8328-1.781 6.1759-2.757 9.5238-2.751zm173.78 7.5696c4.4628 0.31087 9.2438-0.67397 13.515 0.81745 2.831 2.8939 1.1747 7.3058 1.6649 10.914 0.28948 3.5115-0.6095 7.2411 0.50377 10.602 3.6062 1.4806 7.858 0.30063 11.733 0.67447 3.2639 0.45584 7.5056-1.1389 9.9096 1.7844 1.5479 5.557 0.54854 11.518 0.65171 17.211-0.0387 2.3416-0.1522 6.1329-3.4252 5.9928-6.0572 0.70964-12.302-0.29442-18.269 0.59503-2.2404 2.1108-0.6048 5.997-1.1037 8.851-0.28322 4.0741 0.63233 8.546-1.0487 12.353-3.2302 1.6789-7.1405 0.61768-10.672 0.95822-4.0473-0.11102-8.0291 0.15047-11.982-0.49004-2.6107-2.7702-1.0742-6.9584-1.5395-10.388-0.29598-3.6278 0.61558-7.4766-0.50643-10.953-3.6073-1.4786-7.8579-0.30021-11.733-0.67354-3.2309-0.45938-7.4056 1.1186-9.8337-1.6955-1.5707-5.1383-0.63923-10.472-0.91389-15.813 0.20021-2.5064-0.59022-7.1416 3.1078-7.2765 6.1795-0.7995 12.628 0.12772 18.797-0.86728 2.198-2.1335 0.5865-5.9862 1.0791-8.8372 0.38894-4.1392-0.83343-8.7729 1.016-12.63 2.5696-1.6224 6.1427-0.90459 9.049-1.1302zm-67.707 3.84c6.5005 0.24355 13.124-0.5062 19.555 0.54964 6.2678 2.0535 5.8339 12.596-0.73318 13.827-11.852 0.52643-24.07 0.35434-36.007 0.0659-5.73 0.66643-8.993-6.9128-5.8384-11.213 2.6811-4.173 8.2248-2.9002 12.346-3.1957 3.5591-0.0266 7.1183-0.0295 10.677-0.0338zm-49.025 0.0449c4.3307 0.33611 8.8694-0.6158 13.014 0.87083 5.5495 2.7213 4.8039 12.689-1.7304 13.485-12.244 0.48859-24.571 0.33575-36.78 0.0243-4.7404 0.0473-6.9726-5.6564-5.4693-9.6305 0.99522-3.3625 4.5532-5.3307 7.944-4.5998 7.6742-0.0519 15.348-0.14501 23.023-0.14947zm10.277 36.86h45.102c3.3084 1.2196 5.2428 4.5373 4.767 8.0041 0.18575 12.068 0.0505 24.138 0.0927 36.207-1.372 2.9615-4.1091 5.718-7.6595 4.7738-28.956-0.0869-57.986 0.47217-86.893-0.15501-3.4064 0.0258-5.5482-3.8303-5.0283-6.8769-0.2404-12.613-0.51966-25.473 0.24712-38.008 1.1948-2.5898 3.7684-4.1529 6.6217-3.6949 14.098-0.34895 28.531-0.19898 42.75-0.25004z" fill="#e51a1a" stroke-width=".47942"/><path d="m718.7 17.188c-9.543 0.22886-20.771 2.5508-26.016 11.324 0.23415 131.38-0.5686 262.77 0.69873 394.15-1.143 5.2018 2.2649 9.4818 6.9926 11.228 13.569 5.9865 31.284 6.3538 43.361-3.1368 5.4607-4.0711 1.6966-12.034 2.8072-17.83v-385.12c-5.4419-9.244-18.119-10.523-27.844-10.618z" fill="#e51a1a" stroke-width=".95884"/><path d="m561.71 122.75c-3.2036-0.0514-5.917 3.0685-5.5323 6.2254 0.24797 2.8546 2.9758 5.3557 5.8838 5.0874 3.1539-0.0386 6.0353-3.0648 5.5528-6.2621-0.29432-2.8721-3.024-5.197-5.9043-5.0508z" fill="#e51a1a" stroke-width=".11986"/><path d="m544.2 122.75c-3.1592-0.0628-6.1393 2.8381-5.7769 6.0606 0.12189 3.1454 3.3161 5.6681 6.4019 5.22 3.1186-0.19331 5.5332-3.3957 5.0011-6.4455-0.34815-2.7015-2.8959-4.9221-5.6262-4.8352z" fill="#e51a1a" stroke-width=".11986"/><path d="m455.61 319.55c-12.255 0.12469-21.022 15.218-14.302 25.703 5.6286 10.227 21.804 11.48 28.363 1.4888 8.6729-10.651-0.64933-27.749-14.06-27.192z" fill="#696969" stroke-width=".95884"/><path d="m842.37 142.8c-23.076 0.39509-46.265-0.63071-69.271 1.1311-3.8555 2.8059-1.6754 8.9702-2.5236 13.113-0.16106 25.319-0.75262 50.727 0.52729 75.998 4.0439 3.2564 10.288 0.66289 15.131 1.6398 56.709 0.23891 113.44 0.89915 170.14-0.40385 4.5164 0.86936 5.7409-3.6781 5.3048-7.2573 0.72882-26.753 1.3167-53.608-0.30457-80.329-1.8875-5.044-8.961-2.7959-13.103-3.6064-35.296-0.50874-70.601-0.21849-105.9-0.28514z" fill="#232323" stroke-width=".95884"/><path d="m457.86 139.35c-6.0236 2.5932-6.5729 8.3894-5.8523 14.203 0.35883 36.006-0.75091 72.061 0.66295 108.04-4e-3 6.5371 7.6141 6.6772 12.389 6.5868 60.901 0.78699 121.82 0.19144 182.72 0.37976 5.2545-2.3925 7.9846-7.707 6.7063-13.418-0.33136-35.987 0.70222-72.016-0.64423-107.98-0.12274-5.5033-5.3561-9.3597-10.768-7.7478-61.325-0.16306-122.65-0.32724-183.97-0.49218l-0.90631 0.31303z" fill="#232323" stroke-width=".95884"/><path d="m495.91 367.37c-6.9855 0.91318-15.893-1.8718-21.308 3.738 0.25412 13.692-1.5111 27.621 0.41949 41.204 2.5945 5.3094 10.076 2.8823 14.761 3.7403 25.846-0.047 51.765 0.8973 77.569-0.60352 7.0371-0.95784 5.1902-9.9866 5.6014-14.971-0.49605-9.8436 1.2263-20.136-1.4289-29.713-3.8102-4.687-11.171-2.1978-16.409-3.1142-19.733-0.24249-39.47-0.3685-59.205-0.28111z" fill="#51ae5f" stroke-width=".95884"/><path d="m487.33 280.95c-7.2121 0.0104-13.14 7.7708-10.92 14.713 1.6962 5.7231 8.0344 10.235 14.028 8.2334 5.9882-1.3056 9.9892-7.8514 8.4889-13.777-1.0957-5.3496-6.0901-9.4596-11.596-9.1689z" fill="#e51a1a" stroke-width=".339"/><path d="m910.97 382.51c-10.001 0.56184-20.428-0.90604-30.188 1.4364-3.2133 5.0196-1.4464 11.921-2.1393 17.637 0.36748 6.412-0.67121 13.308 1.6037 19.398 5.5962 2.9451 12.736 1.1167 18.894 1.8452 19.645-0.2029 39.401 0.91361 58.982-0.68411 5.6815-1.7244 3.1888-9.4584 4.0807-13.817-0.40621-7.7599 1.1361-16.171-1.5581-23.555-5.0047-3.7158-12.202-1.4168-18.031-2.2294-10.548-0.0601-21.096-0.0498-31.644-0.031z" fill="#232323" stroke-width=".95884"/><path d="m752.64 51.259c-1.203 18.473-0.17069 37.361-0.51501 55.993-0.22232 104.01 0.48859 208.1-0.47754 312.06 0.0846 5.8802-0.35269 11.874-3.225 17.014 3.0768 4.2614 11.157 0.8617 16.211 1.9507 81.422-0.15139 162.92 0.30222 244.29-0.22661 7.7706-3.1281 15.084-9.0985 17.115-17.441-0.078-100.49 0.9029-201-0.1461-301.49 0.401-5.3436-0.4923-13.098-7.2678-13.715-24.513-2.1793-49.279-0.14263-73.82-1.4155-21.689 0.18055-42.543-9.2633-59.458-22.211-17.841-12.307-35.816-27.645-58.188-30.035-24.318-1.0723-48.679-0.71599-73.014-1.1442l-0.87794 0.38547zm207.94 92.549c4.2806 4.0331 0.96342 11.553 2.0094 17.07v72.295c-4.6441 3.8727-11.49 1.4645-17.051 2.3981-57.735 0.44413-115.47 0.12232-173.21 0.22183-4.4264-4.0726-1.7681-11.035-2.7022-16.264 0.2279-24.676-0.86607-49.672 0.68717-74.116 1.8904-5.6157 9.7851-1.8727 14.321-2.9776 57.934-0.15598 115.87-0.31288 173.8-0.47014 0.71415 0.61426 1.4283 1.2285 2.1424 1.8428zm-139.29 103.76c40.799 0.36723 81.718-0.40625 122.43 1.03 5.1686-0.42971 2.6229 6.7551 3.4402 9.654-0.31521 13.299 1.0685 26.881-0.8652 39.964-10.307 2.1605-21.34 0.8211-31.954 1.3824-41.52-0.0776-83.072 0.99361-124.57-0.18577-5.5867 0.2006-5.3086-5.8774-4.8803-9.9948v-39.013c5.0946-4.493 12.761-1.8698 18.931-2.7786 5.8234-0.0571 11.647-0.0545 17.471-0.0586zm-27.387 62.534c6.9133 0.65227 12.312 9.7787 6.371 15.173-4.5267 5.136-15.966 2.7486-15.381-5.1275-0.70292-5.6238 3.3033-10.105 9.0097-10.045zm24.319 0.24345c7.4319-0.30632 12.023 9.8796 6.0246 14.808-4.4569 5.5232-15.632 2.4284-15.399-5.3729-0.23792-5.2874 3.9337-9.9771 9.3749-9.4348zm64.233 1.545c7.1812 0.67532 14.891-0.88824 21.712 1.5937 4.6582 4.4714 1.1772 14.067-5.7755 13.03-12.053 0.65753-24.135 0.24318-36.2 0.36519-4.8138-2.9172-6.386-10.153-1.455-13.722 4.3998-3.4734 11.433-0.46198 16.889-1.335 1.6098 0.0224 3.2196 0.0448 4.8294 0.0673zm55.246-0.18727c7.3575 0.5227 15.225-0.90009 22.175 1.5225 6.0636 4.798 0.41213 16.05-7.1089 13.654h-33.889c-5.1958-2.3732-6.977-10.39-1.7381-13.624 4.581-3.4324 11.53-0.65736 17.08-1.5524h3.4814zm7.5546 22.081c13.042-0.821 21.931 15.184 15.049 26.035-5.3043 11.175-22.042 12.169-29.261 2.5394-8.6568-9.5896-2.5906-27.5 10.794-28.419 1.1326-0.14502 2.2766-0.19693 3.4177-0.15544zm-144.87 2.9514c13.56 0.51827 27.383-0.73304 40.745 1.2454 1.9614 8.0268 1.1254 16.823 0.65358 24.975-1.4602 3.5661-7.1372 1.2889-9.9946 2.1641-15.188-0.2479-30.752 1.0492-45.629-0.79516-2.496-7.2602-0.80954-15.592-1.1452-23.322-0.55662-5.7117 7.3429-3.6197 10.55-4.2354 1.6068-0.024 3.2135-0.0299 4.8204-0.0318zm10.897 44.962h38.94c5.7934 4.0384 2.6203 12.067 3.5309 17.9-0.5427 7.1385 1.1623 14.844-1.1076 21.666-3.8886 4.8977-11.303 1.4137-16.806 2.4589h-62.763c-5.9551-4.2445-2.5429-12.653-3.5319-18.744 0.60219-7.158-1.3254-14.896 1.5824-21.55 3.9568-3.8898 11.36-0.68831 16.701-1.7304h23.454zm109.59 0h38.2c5.8889 4.4446 2.5386 12.803 3.5094 18.971-0.52664 6.7422 1.1098 14.04-1.1273 20.476-3.7252 5.1031-11.277 1.4803-16.765 2.5477-21.476-0.31254-43.294 0.49401-64.57-0.80609-3.6346-7.3066-1.6345-16.231-2.208-24.173 0.76587-5.2734-1.2381-12.423 2.9046-16.489 13.141-0.58399 26.748-0.44988 40.056-0.52624z" fill="#e51a1a" stroke-width=".95884"/><path d="m771.32 383.65c-1.0814 11.974-1.0192 24.372-0.50751 36.481 2.8777 3.8415 9.1427 1.6781 13.374 2.5878 21.996 0.24266 44.159 1.1688 66.056-1.0634 4.0711-2.8119 1.7927-9.2505 2.5566-13.471-0.43035-8.2026 0.6494-16.796-1.0135-24.731-20.557-1.1203-41.486-0.15886-62.186-0.47942-6.0145 0.44352-12.523-0.89379-18.28 0.67605z" fill="#232323" stroke-width=".95884"/><path d="m620.79 328.04c-1.2691 7.0966-0.50186 14.603-0.99255 21.857-7.1306 0.45522-14.651-0.90477-21.54 0.67606-0.88794 7.2323-0.70297 15.091-0.10605 22.334 4.8089 2.5792 11.783 0.42364 17.427 1.1259 7.1248-2.0141 3.3352 6.853 4.2455 11.075 0.58756 3.8808-1.6085 11.934 4.5807 11.656 6.4739-0.0626 13.363 0.73574 19.557-0.91764 1.1922-7.1013 0.48705-14.572 0.95697-21.814 7.1306-0.45522 14.651 0.90477 21.54-0.67606 0.88794-7.2323 0.70297-15.091 0.10605-22.334-4.7992-2.5784-11.762-0.425-17.397-1.1259-7.6664 1.9108-3.1591-8.6468-4.5639-13.149 1.4864-6.727-1.6662-11.509-8.8898-9.3835-4.9099 0.40721-10.27-0.86095-14.924 0.67605zm12.017 26.128c8.3504-0.10626 10.089 13.169 2.1349 15.431-6.8422 2.8848-13.106-5.6113-9.491-11.62 1.2192-2.8625 4.4604-3.8973 7.3561-3.811z" fill="#232323" stroke-width=".95884"/><path d="m632.23 354.39c-4.6219-0.0787-8.4692 4.6798-7.4029 9.1844 0.65693 3.8185 4.5246 6.7485 8.4 6.059 3.9786-0.16997 7.1188-4.1593 6.7439-8.0629-0.0985-3.9638-3.811-7.3048-7.741-7.1805z" fill="#696969" stroke-width=".23971"/><path d="m658.33 118.47c-0.68826 0.02748-1.4045 0.13707-2.1484 0.33984h-90.121c-5.2957 2.9442 5.195 7.7603 1.1074 12.457-2.156 1.9161-6.1284 6.589-0.82031 6.8145 27.403 0.54278 54.878-0.38418 82.238 1.1934 7.7043 1.6338 5.7968 11.598 6.4434 17.363 0.18311 34.235 0.81563 68.597-0.37305 102.75 0.1172 3.9769-1.1439 8.8484-5.9512 8.9961-34.47 1.7346-69.044 0.59612-103.55 0.95704-29.423-0.33544-58.911 0.6691-88.293-0.97852-6.6774-1.0102-4.6065-9.4525-5.3711-14.195-0.33398-35.93-0.64709-72.056 0.21875-108.04-0.58372-7.1066 8.2657-7.9569 13.361-7.5586 25.453-0.93194 51.134 0.19572 76.451-0.8125 3.0793-3.2531-4.2207-5.678-3.0527-9.8574-0.84426-3.7903 6.9796-6.7526 1.8457-9.0898-21.642 4.6e-4 -43.284-0.00104-64.926 0.00196-11.358 0.67024-23.305-1.3415-34.277 2.1738-7.2007 5.2594-4.2085 15.574-5.1699 23.166-0.41912 45.701-0.13996 91.407-0.22265 137.11 8.9202 10.764 19.513 20.567 29.805 30.219 5.9425 6.8193 15.445 3.1499 23.301 4.0566 54.739-0.30727 109.5 0.66491 164.22-0.6211 5.9393-0.0847 15.125-0.56815 15.881-8.293 1.6964-35.731 0.5429-71.56 0.91015-107.33-0.24576-24.465 0.49091-49.127-0.36719-73.471-2.8221-3.7362-6.3208-7.5459-11.139-7.3535zm-32.158 159.15c4.354-0.04083 8.6513-0.01699 12.646 0.35352-16.954-0.21152-34.875 0.42097-51.229-0.31445h25.592c4.2247 0.10743 8.6362 0.00176 12.99-0.03907zm-138.43 3.0625c8.7488-0.24261 15.34 10.706 10.072 18.152-4.4972 9.8702-21.412 6.1989-22.033-4.543-1.4324-7.0779 4.8629-13.8 11.961-13.609zm138.5 7.0039c4.3646-0.04242 8.6521-0.01684 12.527 0.36719-16.743 0.0397-33.49 0.41805-50.23-0.00586 8.0225-0.48652 16.48-0.24309 24.709-0.32031 4.188 0.11148 8.6296 0.0014 12.994-0.04102zm0.0039 9.5879c4.3666-0.04316 8.6543-0.01764 12.521 0.37305-16.517 0.0468-35.01 0.62611-50.391 0.01367 8.104-0.52069 16.575-0.25853 24.871-0.3457 4.1863 0.11343 8.6315 0.00214 12.998-0.04102zm-0.07812 10.068c4.354-0.04083 8.6513-0.01504 12.646 0.35547-16.954-0.21152-34.875 0.421-51.229-0.31446h25.592c4.2247 0.10744 8.6362-1.8e-4 12.99-0.04101z" fill="#dedede" stroke-width=".95884"/><path d="m786.67 338.58c-1.0234 8.0161-1.0806 16.644-0.66602 24.691 4.6084 2.6601 11.49 0.43352 16.968 1.1656 12.448-0.26609 25.125 0.53552 37.43-0.39397 2.5458-4.9124 0.15021-11.976 0.74153-17.714 2.0113-7.4192-3.2884-9.9548-9.8258-8.4249-14.645 0.26767-29.519-0.53132-44.022 0.39397z" fill="#dedede" stroke-width=".95884"/><path d="m884.7 248.44c-32.179 0.0767-64.358 0.19679-96.538 0.29401-4.3498 3.4096-1.0004 11.204-2.1632 16.357-0.0122 10.432-0.48999 20.899 0.15746 31.313 2.5456 3.6724 8.4352 1.3195 12.238 2.3035 47.838 0.78163 95.721 1.1877 143.55-0.32398 6.0493 0.28941 4.2254-7.5267 4.8878-11.375-0.0101-12.12 1.0894-24.571-1.3259-36.488-4.3099-3.2563-10.847-1.064-15.984-1.9214-14.938-0.19991-29.879-0.1624-44.818-0.15918z" fill="#28aafd" stroke-width=".95884"/><path d="m557.44 330.73c-6.1446 0.71196-16.311-1.9426-18.915 5.7212-1.0398 6.1196 5.9398 9.5957 11.21 8.7049 10.643-0.40868 21.745 1.4157 32.112-1.3694 6.599-3.1088 2.8938-13.641-4.0526-12.781-6.7716-0.44255-13.573-0.23815-20.355-0.27529z" fill="#32cd32" stroke-width=".95884"/><path d="m500 330.73c-6.2097 0.24117-16.572-1.5584-18.147 6.8317 0.75988 7.2665 9.8181 8.011 15.575 7.6653 9.0644-0.55089 18.617 1.3701 27.406-1.2306 4.6612-2.0527 6.3118-9.1725 1.2079-11.712-8.2467-2.7418-17.491-1.0426-26.042-1.5544z" fill="#f00" stroke-width=".95884"/><path d="m455.2 37.924c-12.339-0.04335-22.477 13.068-18.877 24.977 2.731 11.504 17.156 18.684 27.719 12.742 9.8932-4.797 14.646-18.131 8.6419-27.699-3.514-6.1175-10.386-10.205-17.484-10.02z" fill="#28aafd" stroke-width=".678"/><path d="m548.39 26.728c-5.9294 0.31057-10.565 8.0659-6.4847 13.036 3.5435 6.3169 14.808 4.0132 15.017-3.4364 0.67567-5.0138-3.4165-9.7702-8.532-9.5993z" fill="#51ae5f" stroke-width=".678"/><path d="m524.35 26.752c-6.2364-0.05127-10.273 7.6451-6.7721 12.763 3.0458 6.1524 12.648 4.7578 14.758-1.4315 2.2585-5.2666-2.2854-11.632-7.9864-11.331z" fill="#ffe647" stroke-width=".678"/><path d="m500 26.488c-6.647 0.45593-11.047 9.9167-5.3869 14.539 5.1391 6.6182 17.126-0.98684 13.61-8.4949-1.2984-3.2899-4.5161-6.2126-8.2234-6.0438z" fill="#e51a1a" stroke-width=".678"/><path d="m131.22 392.6c-15.797 0.31884-31.683-0.60126-47.427 0.77334-3.6886 0.78827-5.6396 5.919-2.0075 8.2049 4.7258 2.6519 10.704 1.0745 15.907 1.684 40.749 0.0595 81.509 0.42299 122.25-0.22863 3.58 0.46564 8.6815-1.6671 8.0049-5.9299-2.1654-5.7026-9.3667-3.7891-14.049-4.3418-27.559-0.28552-55.121-0.11773-82.681-0.16192z" fill="#e51a1a" stroke-width=".678"/><path d="m944.66 334.33c-12.714-0.10126-21.656 16.014-13.944 26.51 6.4418 10.332 23.392 9.4162 28.945-1.3296 6.4722-10.606-2.6151-25.717-15.001-25.181z" fill="#ffe647" stroke-width=".95884"/><path d="m817.62 310.71c-6.5172 0.6659-10.975 9.6646-5.3616 14.283 3.1156 3.9136 8.9637 3.6206 11.602-0.65545 5.1561-5.3224 0.32211-13.105-6.24-13.628z" fill="#51ae5f" stroke-width=".95884"/><path d="m793.74 311.03c-8.479-0.29637-11.173 13.098-3.1462 15.914 7.0747 3.9278 15.304-7.1272 9.4442-12.901-1.4577-1.9471-3.8523-3.1521-6.298-3.0132z" fill="#e5bd1a" stroke-width=".95884"/><path d="m454.9 26.625c-17.511 0.24292-32.674 17.217-30.356 34.693 1.8543 16.071 17.702 29.422 33.994 27.184 14.621-1.1909 27.576-14.235 27.769-29.118 1.5915-17.302-14.229-33.281-31.407-32.759zm0.0702 10.914c10.981-0.80633 21.895 9.1567 20.345 20.443 1.3369 10.635-8.7987 20.172-19.162 19.944-9.534 1.0486-18.841-6.7471-20.653-15.899-1.0603-6.7819 0.3841-14.111 5.6838-18.842 3.5857-3.7948 8.56-5.8073 13.785-5.6466z" fill="#196a9e" stroke-width=".678"/><g fill="#292929" fill-rule="evenodd"><path d="m323.35 18.436c14.011 0 25.611 5.2733 25.611 11.751v394.7c0 6.4774-11.6 11.751-25.611 11.751-14.161 0-25.611-5.2733-25.611-11.751v-394.7c0-6.4773 11.449-11.751 25.611-11.751m0-8.436c7.2307 0 15.065 1.2053 21.543 4.2173 6.4787 3.0133 12.504 8.2867 12.504 15.969v394.7c0 7.6827-6.0253 12.956-12.504 15.969-6.4773 3.012-14.312 4.2173-21.543 4.2173s-15.065-1.2053-21.693-4.2173c-6.4787-3.0134-12.353-8.2867-12.353-15.969v-394.7c0-7.6827 5.8747-12.956 12.353-15.969 6.628-3.012 14.463-4.2173 21.693-4.2173"/><path d="m455.47 28.229c16.271 0 29.528 13.257 29.528 29.528 0 16.269-13.257 29.527-29.528 29.527s-29.528-13.257-29.528-29.527c0-16.271 13.257-29.528 29.528-29.528m0-3.7667c18.38 0 33.293 14.915 33.293 33.295 0 18.379-14.913 33.293-33.293 33.293-18.379 0-33.293-14.915-33.293-33.293 0-18.38 14.915-33.295 33.293-33.295"/><path d="m559.42 35.159c0 5.8747-4.8213 10.696-10.696 10.696-5.876 0-10.545-4.8213-10.545-10.696 0-5.876 4.6693-10.696 10.545-10.696 5.8747 0 10.696 4.82 10.696 10.696m-24.255 0c0 5.8747-4.6707 10.696-10.545 10.696-5.876 0-10.696-4.8213-10.696-10.696 0-5.876 4.82-10.696 10.696-10.696 5.8747 0 10.545 4.82 10.545 10.696m13.559-6.9293c3.9173 0 6.9293 3.1627 6.9293 6.9293s-3.012 6.9293-6.9293 6.9293c-3.7667 0-6.78-3.1627-6.78-6.9293s3.0133-6.9293 6.78-6.9293m-24.104 0c3.7667 0 6.7787 3.1627 6.7787 6.9293s-3.012 6.9293-6.7787 6.9293c-3.9173 0-6.9307-3.1627-6.9307-6.9293s3.0133-6.9293 6.9307-6.9293m-24.255 0c3.7667 0 6.9293 3.1627 6.9293 6.9293s-3.1627 6.9293-6.9293 6.9293c-3.7667 0-6.9307-3.1627-6.9307-6.9293s3.164-6.9293 6.9307-6.9293m10.696 6.9293c0 5.8747-4.8213 10.696-10.696 10.696-5.876 0-10.696-4.8213-10.696-10.696 0-5.876 4.82-10.696 10.696-10.696 5.8747 0 10.696 4.82 10.696 10.696"/><path d="m455.47 39.377c10.093 0 18.38 8.2853 18.38 18.379 0 10.095-8.2867 18.38-18.38 18.38s-18.379-8.2853-18.379-18.38c0-10.093 8.2853-18.379 18.379-18.379m0-3.7667c12.203 0 22.145 9.9427 22.145 22.145 0 12.203-9.9427 22.147-22.145 22.147s-22.145-9.944-22.145-22.147 9.9427-22.145 22.145-22.145"/><path d="m424.14 97.377 64.479 0.30133c16.721 0.15067 31.335-3.164 45.948-11.148 12.203-6.78 22.748-15.819 34.197-23.803 17.928-12.504 34.8-19.133 56.947-18.983l64.477 0.15067v8.588l-64.477-0.30134c-60.109-0.15066-67.944 54.233-137.09 53.932l-64.629-0.15066c-4.8213-0.15067-8.888 3.9173-8.888 8.8893v104.25h-5.5747v-113.89c3.164-4.6693 8.5867-7.8333 14.613-7.8333"/><path d="m448.09 119.97h209.86c5.8747 0 10.696 4.8213 10.696 10.696v172.34c0 5.876-4.8213 10.696-10.696 10.696h-186.35c-3.164 0-11.6-9.0387-19.735-17.173-7.232-7.232-14.463-13.709-14.463-16.421v-149.45c0-5.8747 4.82-10.696 10.696-10.696m0-3.7667h209.86c7.984 0 14.463 6.4787 14.463 14.463v172.34c0 7.8333-6.4787 14.463-14.463 14.463h-186.35c-5.4227 0-16.723-12.655-20.639-16.421-0.60267-0.6027-1.2053-1.2053-1.808-1.808-3.3147-3.3133-6.78-6.628-9.9427-10.093-2.26-2.26-5.5747-5.8747-5.5747-9.0387v-149.45c0-7.984 6.4787-14.463 14.463-14.463"/><path d="m460.14 140.76h185.75c3.9173 0 7.08 3.164 7.08 7.08v112.23c0 3.7666-3.1627 6.9306-7.08 6.9306h-185.75c-3.9173 0-7.08-3.164-7.08-6.9306v-112.23c0-3.916 3.1627-7.08 7.08-7.08m0-3.7667h185.75c6.0253 0 10.847 4.8213 10.847 10.847v112.23c0 5.876-4.8213 10.696-10.847 10.696h-185.75c-6.0267 0-10.847-4.82-10.847-10.696v-112.23c0-6.0253 4.82-10.847 10.847-10.847"/><path d="m561.83 120.88c4.2187 0 7.6827 3.3147 7.6827 7.532 0 4.2187-3.464 7.5333-7.6827 7.5333-4.068 0-7.532-3.3147-7.532-7.5333 0-4.2173 3.464-7.532 7.532-7.532m0 3.7667c2.1093 0 3.9173 1.6573 3.9173 3.7653 0 2.1093-1.808 3.7667-3.9173 3.7667s-3.7667-1.6573-3.7667-3.7667c0-2.108 1.6573-3.7653 3.7667-3.7653m-17.627 0c2.1093 0 3.7667 1.6573 3.7667 3.7653 0 2.1093-1.6573 3.7667-3.7667 3.7667-2.108 0-3.916-1.6573-3.916-3.7667 0-2.108 1.808-3.7653 3.916-3.7653m0-3.7667c4.068 0 7.5333 3.3147 7.5333 7.532 0 4.2187-3.4653 7.5333-7.5333 7.5333-4.2173 0-7.6827-3.3147-7.6827-7.5333 0-4.2173 3.4653-7.532 7.6827-7.532"/><path d="m487.71 282.68c5.424 0 9.792 4.52 9.792 9.9427 0 5.424-4.368 9.9426-9.792 9.9426-5.5747 0-9.9427-4.5186-9.9427-9.9426 0-5.4227 4.368-9.9427 9.9427-9.9427m0-3.7667c7.532 0 13.559 6.1774 13.559 13.709 0 7.5333-6.0267 13.709-13.559 13.709s-13.709-6.176-13.709-13.709c0-7.532 6.1773-13.709 13.709-13.709"/><path d="m587.29 275.9h51.824c0.904 0 1.808 0.904 1.808 1.9587 0 1.0546-0.904 1.808-1.808 1.808h-51.824c-1.0547 0-1.808-0.7534-1.808-1.808 0-1.0547 0.75333-1.9587 1.808-1.9587"/><path d="m587.29 285.84h51.824c0.904 0 1.808 0.7533 1.808 1.808s-0.904 1.9587-1.808 1.9587h-51.824c-1.0547 0-1.808-0.904-1.808-1.9587s0.75333-1.808 1.808-1.808"/><path d="m587.29 295.63h51.824c0.904 0 1.808 0.904 1.808 1.9587 0 1.0546-0.904 1.808-1.808 1.808h-51.824c-1.0547 0-1.808-0.7534-1.808-1.808 0-1.0547 0.75333-1.9587 1.808-1.9587"/><path d="m587.29 305.58h51.824c0.904 0 1.808 0.7533 1.808 1.808s-0.904 1.9587-1.808 1.9587h-51.824c-1.0547 0-1.808-0.904-1.808-1.9587s0.75333-1.808 1.808-1.808"/><path d="m488.92 328.63h33.595c5.1227 0 9.1907 4.2187 9.1907 9.1893 0 5.1227-4.068 9.1907-9.1907 9.1907h-33.595c-5.1227 0-9.1893-4.068-9.1893-9.1907 0-4.9706 4.0667-9.1893 9.1893-9.1893m56.343 0h33.596c4.9707 0 9.1893 4.2187 9.1893 9.1893 0 5.1227-4.2187 9.1907-9.1893 9.1907h-33.596c-5.1213 0-9.1893-4.068-9.1893-9.1907 0-4.9706 4.068-9.1893 9.1893-9.1893m101.39 19.132h17.175c3.164 0 5.724 2.5613 5.724 5.5747v17.476c0 3.1626-2.56 5.724-5.724 5.724h-17.175v17.175c0 3.012-2.4107 5.5734-5.5733 5.5734h-17.476c-3.164 0-5.724-2.5614-5.724-5.5734v-17.175h-17.175c-3.0133 0-5.5747-2.5614-5.5747-5.724v-17.476c0-3.0134 2.5613-5.5747 5.5747-5.5747h17.175v-17.173c0-3.164 2.56-5.7254 5.724-5.7254h17.476c3.1627 0 5.5733 2.5614 5.5733 5.7254zm-190.72-30.581c10.847 0 19.433 8.7373 19.433 19.584 0 10.696-8.5867 19.435-19.433 19.435-10.696 0-19.435-8.7386-19.435-19.435 0-10.847 8.7387-19.584 19.435-19.584m32.992 15.216h33.595c3.0133 0 5.424 2.56 5.424 5.4226 0 3.0134-2.4107 5.5747-5.424 5.5747h-33.595c-3.0133 0-5.424-2.5613-5.424-5.5747 0-2.8626 2.4107-5.4226 5.424-5.4226m56.343 0h33.596c3.012 0 5.4227 2.56 5.4227 5.4226 0 3.0134-2.4107 5.5747-5.4227 5.5747h-33.596c-3.012 0-5.4227-2.5613-5.4227-5.5747 0-2.8626 2.4107-5.4226 5.4227-5.4226m78.339-3.7667h17.476c1.0547 0 1.9573 0.904 1.9573 1.9587v20.94h20.791c1.0547 0 1.9587 0.7533 1.9587 1.808v17.476c0 1.0533-0.904 1.9573-1.9587 1.9573h-20.791v20.941c0 1.0547-0.90266 1.808-1.9573 1.808h-17.476c-1.0547 0-1.9587-0.7533-1.9587-1.808v-20.941h-20.94c-1.0547 0-1.808-0.904-1.808-1.9573v-17.476c0-1.0547 0.75334-1.808 1.808-1.808h20.94v-20.94c0-1.0547 0.904-1.9587 1.9587-1.9587m-167.67-7.6827c8.7373 0 15.817 7.08 15.817 15.817 0 8.588-7.08 15.668-15.817 15.668-8.588 0-15.668-7.08-15.668-15.668 0-8.7374 7.08-15.817 15.668-15.817m24.405 48.208h86.021c2.7107 0 4.9707 2.2587 4.9707 4.9707v35.553c0 2.712-2.26 4.972-4.9707 4.972h-86.021c-2.712 0-4.972-2.26-4.972-4.972v-35.553c0-2.712 2.26-4.9707 4.972-4.9707m0-3.7666h86.021c4.82 0 8.7373 3.9173 8.7373 8.7373v35.553c0 4.8214-3.9173 8.7387-8.7373 8.7387h-86.021c-4.8213 0-8.7387-3.9173-8.7387-8.7387v-35.553c0-4.82 3.9173-8.7373 8.7387-8.7373"/><path d="m632.34 356.19c3.164 0 5.8747 2.712 5.8747 5.876 0 3.3133-2.7107 5.8747-5.8747 5.8747-3.3147 0-5.876-2.5614-5.876-5.8747 0-3.164 2.5613-5.876 5.876-5.876m0-3.7667c5.2733 0 9.6413 4.3694 9.6413 9.6427 0 5.4227-4.368 9.6413-9.6413 9.6413s-9.6413-4.2186-9.6413-9.6413c0-5.2733 4.368-9.6427 9.6413-9.6427"/><path d="m738.85 435.74c1.808 0.6027 3.7667 0.904 5.7253 0.904h259.72c11.299 0 20.489-9.1893 20.489-20.488v-301.3c0-4.9707-4.068-9.0387-9.04-8.888l-64.477 0.15067c-69.149 0.30133-76.983-54.084-137.09-53.933l-64.479 0.30133v-8.5867l64.328-0.15067c22.296-0.15067 39.169 6.4773 57.096 18.981 11.449 7.9853 21.995 17.024 34.197 23.803 14.613 7.9853 29.227 11.299 45.799 11.148l64.628-0.3c9.6426 0 17.476 7.8333 17.476 17.475v301.3c0 15.968-12.956 28.924-28.925 28.924h-259.72c-5.876 0-11.451-1.808-15.969-4.82 1.0547 0.1507 1.808 0.1507 2.712 0.1507 3.3133 0 6.176-1.808 7.532-4.6707m-302.2-425.74h257.46c5.4227 0 10.545 1.5067 15.064 4.0667-3.6147 0.15067-6.4773 2.5613-7.532 5.7253-2.4107-0.904-4.972-1.356-7.532-1.356h-257.46c-11.901 0-21.544 9.6413-21.544 21.543v374.97c0 11.901 9.6427 21.693 21.544 21.693h257.46c3.1627 0 6.176-0.7533 8.888-1.9587 1.5067 2.4107 4.2187 3.9174 7.2307 3.9174h2.4107c-5.1227 4.0666-11.6 6.4773-18.529 6.4773h-257.46c-16.421 0-29.98-13.559-29.98-30.129v-374.97c0-16.42 13.559-29.979 29.98-29.979"/><path d="m884.38 379.85h72.011c4.3693 0 7.8347 3.616 7.8347 7.984v29.679c0 4.3693-3.4654 7.984-7.8347 7.984h-72.011c-4.3693 0-7.8333-3.6147-7.8333-7.984v-29.679c0-4.368 3.464-7.984 7.8333-7.984m-108.77 0h71.86c4.3693 0 7.984 3.616 7.984 7.984v29.679c0 4.3693-3.6147 7.984-7.984 7.984h-71.86c-4.3693 0-7.8333-3.6147-7.8333-7.984v-29.679c0-4.368 3.464-7.984 7.8333-7.984m13.257-44.441h49.263c3.3147 0 5.8747 2.7106 5.8747 6.0253v19.585c0 3.3134-2.56 6.0254-5.8747 6.0254h-49.263c-3.164 0-5.876-2.712-5.876-6.0254v-19.585c0-3.3147 2.712-6.0253 5.876-6.0253m155.92-3.616c10.696 0 19.435 8.7373 19.435 19.433s-8.7387 19.435-19.435 19.435-19.433-8.7387-19.433-19.435 8.7373-19.433 19.433-19.433m-116.3-12.504c0 5.8746-4.8213 10.545-10.697 10.545-5.8747 0-10.545-4.6707-10.545-10.545 0-5.876 4.6707-10.696 10.545-10.696 5.876 0 10.697 4.82 10.697 10.696m-24.255 0c0 5.8746-4.6707 10.545-10.547 10.545-5.8747 0-10.696-4.6707-10.696-10.545 0-5.876 4.8213-10.696 10.696-10.696 5.876 0 10.547 4.82 10.547 10.696m117.21-9.1894h33.595c5.1227 0 9.1907 4.0667 9.1907 9.1894 0 4.972-4.068 9.1893-9.1907 9.1893h-33.595c-4.972 0-9.1893-4.2173-9.1893-9.1893 0-5.1227 4.2173-9.1894 9.1893-9.1894m-56.192 0h33.595c4.9707 0 9.1893 4.0667 9.1893 9.1894 0 4.972-4.2186 9.1893-9.1893 9.1893h-33.595c-5.1227 0-9.1907-4.2173-9.1907-9.1893 0-5.1227 4.068-9.1894 9.1907-9.1894m-75.627-63.876h152.76c3.616 0 6.6294 3.0134 6.6294 6.628v41.731c0 3.7667-3.0134 6.628-6.6294 6.628h-152.76c-3.616 0-6.6293-2.8613-6.6293-6.628v-41.731c0-3.6146 3.0133-6.628 6.6293-6.628m94.759 137.39h72.011c2.26 0 4.068 1.9586 4.068 4.2173v29.679c0 2.26-1.808 4.2186-4.068 4.2186h-72.011c-2.26 0-4.068-1.9586-4.068-4.2186v-29.679c0-2.2587 1.808-4.2173 4.068-4.2173m-108.77 0h71.86c2.4107 0 4.2187 1.9586 4.2187 4.2173v29.679c0 2.26-1.808 4.2186-4.2187 4.2186h-71.86c-2.26 0-4.068-1.9586-4.068-4.2186v-29.679c0-2.2587 1.808-4.2173 4.068-4.2173m13.257-44.443h49.263c1.2053 0 2.1093 1.0547 2.1093 2.26v19.585c0 1.204-0.904 2.2587-2.1093 2.2587h-49.263c-1.2053 0-2.1093-1.0547-2.1093-2.2587v-19.585c0-1.2053 0.904-2.26 2.1093-2.26m155.92-3.6147c8.7373 0 15.668 7.08 15.668 15.667 0 8.7387-6.9307 15.668-15.668 15.668-8.5867 0-15.668-6.9293-15.668-15.668 0-8.5867 7.0813-15.667 15.668-15.667m-127-23.201c3.9173 0 6.9307 3.0133 6.9307 6.9307 0 3.7666-3.0133 6.9293-6.9307 6.9293-3.7653 0-6.7787-3.1627-6.7787-6.9293 0-3.9174 3.0133-6.9307 6.7787-6.9307m-24.104 0c3.7667 0 6.78 3.0133 6.78 6.9307 0 3.7666-3.0133 6.9293-6.78 6.9293-3.916 0-6.9293-3.1627-6.9293-6.9293 0-3.9174 3.0133-6.9307 6.9293-6.9307m127.75 1.5067h33.595c3.0133 0 5.424 2.4106 5.424 5.424 0 3.0133-2.4107 5.4226-5.424 5.4226h-33.595c-3.0133 0-5.424-2.4093-5.424-5.4226 0-3.0134 2.4107-5.424 5.424-5.424m-56.192 0h33.595c3.0133 0 5.4227 2.4106 5.4227 5.424 0 3.0133-2.4094 5.4226-5.4227 5.4226h-33.595c-3.0133 0-5.424-2.4093-5.424-5.4226 0-3.0134 2.4107-5.424 5.424-5.424m-75.627-63.875h152.76c1.5067 0 2.8627 1.3547 2.8627 2.8613v41.731c0 1.6573-1.356 3.0133-2.8627 3.0133h-152.76c-1.5067 0-2.8627-1.356-2.8627-3.0133v-41.731c0-1.5066 1.356-2.8613 2.8627-2.8613m-14.613-105.46h181.99c1.9586 0 3.4653 1.6573 3.4653 3.616v82.104c0 1.9587-1.5067 3.616-3.4653 3.616h-181.99c-1.9587 0-3.4653-1.6573-3.4653-3.616v-82.104c0-1.9587 1.5067-3.616 3.4653-3.616m0-3.7667h181.99c4.068 0 7.232 3.3147 7.232 7.3827v82.104c0 4.068-3.164 7.3827-7.232 7.3827h-181.99c-4.068 0-7.2307-3.3147-7.2307-7.3827v-82.104c0-4.068 3.1627-7.3827 7.2307-7.3827"/><path d="m719.86 18.436c14.161 0 25.611 5.2733 25.611 11.751v394.7c0 6.4774-11.449 11.751-25.611 11.751-14.011 0-25.611-5.2733-25.611-11.751v-394.7c0-6.4773 11.6-11.751 25.611-11.751m0-8.436c7.2307 0 15.065 1.2053 21.693 4.2173 6.4787 3.0133 12.353 8.2867 12.353 15.969v394.7c0 7.6827-5.8747 12.956-12.353 15.969-6.628 3.012-14.463 4.2173-21.693 4.2173-7.08 0-14.915-1.2053-21.543-4.2173-6.4787-3.0134-12.504-8.2867-12.504-15.969v-394.7c0-7.6827 6.0253-12.956 12.504-15.969 6.628-3.012 14.463-4.2173 21.543-4.2173"/><path d="m58.811 28.229c16.421 0 29.528 13.257 29.528 29.528 0 16.269-13.107 29.527-29.528 29.527-16.271 0-29.377-13.257-29.377-29.527 0-16.271 13.107-29.528 29.377-29.528m0-3.7667c18.38 0 33.293 14.915 33.293 33.295 0 18.379-14.913 33.293-33.293 33.293s-33.143-14.915-33.143-33.293c0-18.38 14.763-33.295 33.143-33.295"/><path d="m162.91 35.159c0 5.8747-4.8213 10.696-10.696 10.696-5.876 0-10.696-4.8213-10.696-10.696 0-5.876 4.82-10.696 10.696-10.696 5.8747 0 10.696 4.82 10.696 10.696m-24.255 0c0 5.8747-4.8213 10.696-10.696 10.696-5.876 0-10.696-4.8213-10.696-10.696 0-5.876 4.82-10.696 10.696-10.696 5.8747 0 10.696 4.82 10.696 10.696m13.559-6.9293c3.7667 0 6.9293 3.1627 6.9293 6.9293s-3.1627 6.9293-6.9293 6.9293-6.9307-3.1627-6.9307-6.9293 3.164-6.9293 6.9307-6.9293m-24.255 0c3.7667 0 6.9293 3.1627 6.9293 6.9293s-3.1627 6.9293-6.9293 6.9293c-3.7667 0-6.9307-3.1627-6.9307-6.9293s3.164-6.9293 6.9307-6.9293m-24.255 0c3.916 0 6.9293 3.1627 6.9293 6.9293s-3.0133 6.9293-6.9293 6.9293c-3.7667 0-6.78-3.1627-6.78-6.9293s3.0133-6.9293 6.78-6.9293m10.696 6.9293c0 5.8747-4.8213 10.696-10.696 10.696-5.876 0-10.545-4.8213-10.545-10.696 0-5.876 4.6693-10.696 10.545-10.696 5.8747 0 10.696 4.82 10.696 10.696"/><path d="m58.811 39.377c10.244 0 18.38 8.2853 18.38 18.379 0 10.095-8.136 18.38-18.38 18.38-10.093 0-18.229-8.2853-18.229-18.38 0-10.093 8.136-18.379 18.229-18.379m0-3.7667c12.203 0 22.145 9.9427 22.145 22.145 0 12.203-9.9427 22.147-22.145 22.147s-21.995-9.944-21.995-22.147 9.792-22.145 21.995-22.145"/><path d="m27.476 97.377 64.629 0.30133c16.571 0.15067 31.184-3.164 45.797-11.148 12.203-6.78 22.748-15.819 34.197-23.803 18.079-12.504 34.8-19.133 57.097-18.983l64.477 0.15067v8.588l-64.477-0.30134c-60.261-0.15066-68.095 54.233-137.09 53.932l-64.629-0.15066c-4.972-0.15067-9.0387 3.9173-9.0387 8.8893v104.25h-5.424v-113.89c3.164-4.6693 8.436-7.8333 14.463-7.8333"/><path d="m40.131 10h257.31c5.5747 0 10.696 1.5067 15.065 4.068-3.4653 0.15067-6.4787 2.56-7.5333 5.724-2.2587-0.904-4.82-1.356-7.532-1.356h-257.31c-11.901 0-21.693 9.6427-21.693 21.544v374.97c0 11.901 9.792 21.693 21.693 21.693h257.31c3.3147 0 6.328-0.7533 9.0387-1.9573 1.5067 2.4093 4.068 3.916 7.0813 3.916h2.4107c-5.1227 4.068-11.449 6.4786-18.531 6.4786h-257.31c-16.572 0-30.131-13.559-30.131-30.131v-374.97c0-16.421 13.559-29.98 30.131-29.98"/><path d="m85.024 394.46h137.69c1.9587 0 3.6147 1.6573 3.6147 3.616 0 1.808-1.656 3.464-3.6147 3.464h-137.69c-1.9587 0-3.4653-1.656-3.4653-3.464 0-1.9587 1.5067-3.616 3.4653-3.616m0-3.7667h137.69c4.0667 0 7.2307 3.3147 7.2307 7.3827 0 3.916-3.164 7.2307-7.2307 7.2307h-137.69c-3.9173 0-7.2307-3.3147-7.2307-7.2307 0-4.068 3.3133-7.3827 7.2307-7.3827"/><path d="m18.437 214.58c0.75333-0.75333 1.808-0.75333 2.4107 0l11.901 11.751c0.60267 0.60266 0.60267 1.6573 0 2.4107l-11.901 11.751c-0.60267 0.6026-1.6573 0.6026-2.4107 0zm-2.5613-2.712c2.1093-2.1093 5.5747-2.1093 7.684 0l11.751 11.751c2.108 2.1093 2.108 5.5747 0 7.684l-11.751 11.901c-2.1093 2.1093-5.5747 2.1093-7.684 0l-1.0547-1.2054v-29.076z"/></g><path d="m917.42 313.4c-3.1941 3.0392-4.0277 7.8209-0.51995 10.986 4.6197 3.6196 11.844 0.81012 17.534 1.6978 8.132-0.56324 16.841 1.1532 24.595-0.90453 3.1941-3.0392 4.0277-7.8209 0.51995-10.986-4.6197-3.6196-11.844-0.81011-17.534-1.6978-8.0971 0.56505-16.893-1.1555-24.595 0.90453z" fill="#232323" stroke-width=".95884"/><path d="m876.78 312.51c-5.7458 0.8768-14.972-2.1203-17.83 4.7773-1.9188 5.313 3.6341 9.1065 8.4722 8.4573 11.715 0.46963 23.911 1.5767 35.34-1.3821 5.9284-3.4877 1.3854-12.46-4.8186-11.577-7.0418-0.44384-14.112-0.23328-21.164-0.27529z" fill="#232323" stroke-width=".95884"/></svg>